# OBJ generated by ONSHAPE BY PTC INC, 1.205 Units = meters
mtllib pool_cirtesu_dimentions.mtl
g Part 1
v 6.5 -5 4 
v -1.97215e-31 -5 4 
v 0 -0.15 4 
v -6.5 -0.15 4 
v -6.5 -5 4 
v 6.5 -0.15 4 
v -6.5 -5 -4 
v -6.5 -0.15 -4 
v 1.97215e-31 -5 -4 
v 0 -0.15 -4 
v 6.5 -0.15 -4 
v 6.5 -5 -4 
v 6.5 -2.38439 2.94545 
v 6.5 -2.38439 -2.94545 
v 6.5 -3.88439 -2.94545 
v 6.5 -3.88439 2.94545 
v 6.65 -3.88439 2.94545 
v 6.65 -2.38439 2.94545 
v 6.65 -3.88439 -2.94545 
v 6.65 -2.38439 -2.94545 
v 6.65 0 -4.15 
v 6.65 0 4.15 
v 6.65 -5 4.15 
v 6.65 -5 -4.15 
v -1.97215e-31 -5 4.15 
v -6.65 -5 4.15 
v -6.65 -5 -4.15 
v 1.97215e-31 -5 -4.15 
v 1.97215e-31 0 -4.15 
v -6.65 0 -4.15 
v -6.65 0 4.15 
v -1.97215e-31 0 4.15 
vn 0 0 -1 
vn 1 0 -2.22045e-16 
vn 0 0 1 
vn 0 -1 0 
vn -1 0 2.22045e-16 
vn 0 0 -1 
vn 0 1 0 
vn 0 0 1 
vn 0 -1 0 
vn 1 0 -2.22045e-16 
vn 0 0 -1 
vn -1 0 2.22045e-16 
vn 0 0 1 
vn 0 1 0 
usemtl 0.615686_0.811765_0.929412_0.000000_0.000000
o mesh0
f 1//1 2//1 3//1 
f 4//1 3//1 2//1 
f 2//1 5//1 4//1 
f 3//1 6//1 1//1 
o mesh1
f 7//2 8//2 4//2 
f 4//2 5//2 7//2 
o mesh2
f 7//3 9//3 10//3 
f 11//3 10//3 9//3 
f 9//3 12//3 11//3 
f 10//3 8//3 7//3 
o mesh3
f 8//4 10//4 3//4 
f 6//4 3//4 10//4 
f 10//4 11//4 6//4 
f 3//4 4//4 8//4 
o mesh4
f 1//5 6//5 13//5 
f 6//5 11//5 14//5 
f 14//5 13//5 6//5 
f 12//5 15//5 14//5 
f 14//5 11//5 12//5 
f 1//5 16//5 15//5 
f 15//5 12//5 1//5 
f 13//5 16//5 1//5 
o mesh5
f 17//6 16//6 13//6 
f 13//6 18//6 17//6 
o mesh6
f 15//7 16//7 17//7 
f 17//7 19//7 15//7 
o mesh7
f 14//8 15//8 19//8 
f 19//8 20//8 14//8 
o mesh8
f 18//9 13//9 14//9 
f 14//9 20//9 18//9 
o mesh9
f 21//10 22//10 18//10 
f 23//10 17//10 18//10 
f 23//10 24//10 19//10 
f 24//10 21//10 20//10 
f 18//10 22//10 23//10 
f 20//10 19//10 24//10 
f 19//10 17//10 23//10 
f 18//10 20//10 21//10 
o mesh10
f 25//9 26//9 5//9 
f 25//9 2//9 1//9 
f 24//9 23//9 1//9 
f 1//9 23//9 25//9 
f 5//9 2//9 25//9 
f 26//9 27//9 7//9 
f 28//9 24//9 12//9 
f 28//9 9//9 7//9 
f 7//9 5//9 26//9 
f 7//9 27//9 28//9 
f 12//9 9//9 28//9 
f 1//9 12//9 24//9 
o mesh11
f 24//11 28//11 29//11 
f 30//11 29//11 28//11 
f 28//11 27//11 30//11 
f 29//11 21//11 24//11 
o mesh12
f 26//12 31//12 30//12 
f 30//12 27//12 26//12 
o mesh13
f 26//13 25//13 32//13 
f 22//13 32//13 25//13 
f 25//13 23//13 22//13 
f 32//13 31//13 26//13 
o mesh14
f 31//14 32//14 29//14 
f 21//14 29//14 32//14 
f 32//14 22//14 21//14 
f 29//14 30//14 31//14 
